<svg width="54" height="54" viewBox="0 0 54 54" fill="none" xmlns="http://www.w3.org/2000/svg">
<rect x="10" y="11" width="32" height="31" fill="white"/>
<path d="M27 3.375C20.7577 3.45031 14.7922 5.96355 10.3779 10.3779C5.96355 14.7922 3.45031 20.7577 3.375 27C3.45031 33.2423 5.96355 39.2078 10.3779 43.6221C14.7922 48.0365 20.7577 50.5497 27 50.625C33.2423 50.5497 39.2078 48.0365 43.6221 43.6221C48.0365 39.2078 50.5497 33.2423 50.625 27C50.5497 20.7577 48.0365 14.7922 43.6221 10.3779C39.2078 5.96355 33.2423 3.45031 27 3.375ZM40.5 28.6875H28.6875V40.5H25.3125V28.6875H13.5V25.3125H25.3125V13.5H28.6875V25.3125H40.5V28.6875Z" fill="#8F3CF2"/>
</svg>
