<svg width="54" height="54" viewBox="0 0 54 54" fill="none" xmlns="http://www.w3.org/2000/svg">
<path d="M6.33001 34.7999L3.48001 47.0999C3.3817 47.5496 3.38507 48.0155 3.48988 48.4636C3.59469 48.9118 3.79829 49.3309 4.08581 49.6903C4.37333 50.0497 4.7375 50.3403 5.15173 50.5409C5.56595 50.7416 6.01977 50.8471 6.48001 50.8499C6.69447 50.8716 6.91056 50.8716 7.12501 50.8499L19.5 47.9999L43.26 24.3299L30 11.0999L6.33001 34.7999Z" fill="#8F3CF2"/>
<path d="M50.73 12.48L41.88 3.62996C41.2981 3.05105 40.5107 2.72607 39.69 2.72607C38.8692 2.72607 38.0818 3.05105 37.5 3.62996L32.58 8.54995L45.825 21.795L50.745 16.875C51.0329 16.5856 51.2609 16.2423 51.416 15.8647C51.5711 15.487 51.6502 15.0826 51.6488 14.6743C51.6474 14.2661 51.5656 13.8622 51.4079 13.4857C51.2502 13.1091 51.0198 12.7674 50.73 12.48Z" fill="#8F3CF2"/>
</svg>
