<svg width="15" height="15" viewBox="0 0 15 15" fill="none" xmlns="http://www.w3.org/2000/svg">
<path fill-rule="evenodd" clip-rule="evenodd" d="M15 7.5C15 9.48912 14.2098 11.3968 12.8033 12.8033C11.3968 14.2098 9.48912 15 7.5 15C5.51088 15 3.60322 14.2098 2.1967 12.8033C0.790176 11.3968 0 9.48912 0 7.5C0 5.51088 0.790176 3.60322 2.1967 2.1967C3.60322 0.790176 5.51088 0 7.5 0C9.48912 0 11.3968 0.790176 12.8033 2.1967C14.2098 3.60322 15 5.51088 15 7.5ZM7.96875 3.75C7.96875 3.62568 7.91936 3.50645 7.83146 3.41854C7.74355 3.33064 7.62432 3.28125 7.5 3.28125C7.37568 3.28125 7.25645 3.33064 7.16854 3.41854C7.08064 3.50645 7.03125 3.62568 7.03125 3.75V7.03125H3.75C3.62568 7.03125 3.50645 7.08064 3.41854 7.16854C3.33064 7.25645 3.28125 7.37568 3.28125 7.5C3.28125 7.62432 3.33064 7.74355 3.41854 7.83146C3.50645 7.91936 3.62568 7.96875 3.75 7.96875H7.03125V11.25C7.03125 11.3743 7.08064 11.4935 7.16854 11.5815C7.25645 11.6694 7.37568 11.7188 7.5 11.7188C7.62432 11.7188 7.74355 11.6694 7.83146 11.5815C7.91936 11.4935 7.96875 11.3743 7.96875 11.25V7.96875H11.25C11.3743 7.96875 11.4935 7.91936 11.5815 7.83146C11.6694 7.74355 11.7188 7.62432 11.7188 7.5C11.7188 7.37568 11.6694 7.25645 11.5815 7.16854C11.4935 7.08064 11.3743 7.03125 11.25 7.03125H7.96875V3.75Z" fill="#72737B"/>
</svg>
