<svg width="15" height="15" viewBox="0 0 15 15" fill="none" xmlns="http://www.w3.org/2000/svg">
<path d="M1.75832 9.66666L0.96665 13.0833C0.93934 13.2082 0.940276 13.3376 0.96939 13.4621C0.998504 13.5866 1.05506 13.703 1.13493 13.8029C1.21479 13.9027 1.31595 13.9834 1.43101 14.0392C1.54608 14.0949 1.67214 14.1242 1.79998 14.125C1.85955 14.131 1.91958 14.131 1.97915 14.125L5.41665 13.3333L12.0167 6.75833L8.33332 3.08333L1.75832 9.66666Z" fill="#72737B"/>
<path d="M14.0917 3.46666L11.6333 1.00833C11.4717 0.84752 11.253 0.757248 11.025 0.757248C10.797 0.757248 10.5783 0.84752 10.4167 1.00833L9.04999 2.37499L12.7292 6.05416L14.0958 4.68749C14.1758 4.60711 14.2391 4.51174 14.2822 4.40685C14.3253 4.30196 14.3473 4.1896 14.3469 4.07621C14.3465 3.96282 14.3238 3.85061 14.28 3.74602C14.2362 3.64143 14.1722 3.5465 14.0917 3.46666Z" fill="#72737B"/>
</svg>
