<svg width="20" height="20" viewBox="0 0 20 20" fill="none" xmlns="http://www.w3.org/2000/svg">
<path d="M15 1.66667H4.99999C4.77898 1.66667 4.56701 1.75447 4.41073 1.91075C4.25445 2.06703 4.16666 2.27899 4.16666 2.50001V10L8.33332 6.66667V9.16667H13.3333V10.8333H8.33332V13.3333L4.16666 10V17.5C4.16666 17.721 4.25445 17.933 4.41073 18.0893C4.56701 18.2455 4.77898 18.3333 4.99999 18.3333H15C15.221 18.3333 15.433 18.2455 15.5892 18.0893C15.7455 17.933 15.8333 17.721 15.8333 17.5V2.50001C15.8333 2.27899 15.7455 2.06703 15.5892 1.91075C15.433 1.75447 15.221 1.66667 15 1.66667Z" fill="white"/>
</svg>
