<svg width="20" height="20" viewBox="0 0 20 20" fill="none" xmlns="http://www.w3.org/2000/svg">
<g clip-path="url(#clip0)">
<path d="M19.6581 2.89018C19.4457 2.30682 19.1079 1.77712 18.6686 1.33838C18.2294 0.899645 17.6993 0.562541 17.1156 0.350807C16.025 -0.00106815 15.0325 -0.00106812 13.0175 -0.00106812H6.96625C4.9675 -0.00106812 3.95812 -0.00106815 2.88437 0.330807C2.29967 0.544207 1.76893 0.883343 1.32962 1.32428C0.890302 1.76521 0.553122 2.2972 0.341875 2.88268C0 3.96643 0 4.96581 0 6.96456V13.0227C0 15.0314 0 16.0239 0.331875 17.1077C0.544327 17.691 0.882082 18.2207 1.32136 18.6595C1.76063 19.0982 2.29075 19.4353 2.87437 19.6471C3.95812 19.9889 4.9575 19.9889 6.95937 19.9889H13.0237C15.0325 19.9889 16.0319 19.9889 17.1087 19.6571C17.6943 19.4447 18.226 19.1063 18.6664 18.6659C19.1068 18.2255 19.4451 17.6938 19.6575 17.1083C19.9994 16.0246 19.9994 15.0252 19.9994 13.0233V6.98143C19.9994 4.97268 19.9994 3.97331 19.6575 2.88956L19.6581 2.89018ZM14.5181 6.75081L13.74 7.52581C13.6641 7.59494 13.5654 7.63377 13.4628 7.63492C13.3601 7.63608 13.2606 7.59947 13.1831 7.53206C12.4314 6.90072 11.4822 6.55284 10.5006 6.54893C9.69 6.54893 8.8825 6.81581 8.8825 7.55831C8.8825 8.30706 9.74812 8.55768 10.7475 8.93206C12.4987 9.51831 13.9475 10.2502 13.9475 11.9658C13.9475 13.8346 12.4987 15.1171 10.1325 15.2571L9.91437 16.2596C9.8954 16.3508 9.84557 16.4326 9.77327 16.4914C9.70098 16.5501 9.61065 16.5821 9.5175 16.5821H8.02312L7.94812 16.5758C7.84174 16.5514 7.74914 16.4864 7.69015 16.3945C7.63116 16.3027 7.61046 16.1914 7.6325 16.0846L7.86687 15.0264C6.96807 14.8008 6.14136 14.3505 5.46437 13.7177V13.7077C5.38934 13.6326 5.34719 13.5307 5.34719 13.4246C5.34719 13.3184 5.38934 13.2166 5.46437 13.1414L6.2975 12.3339C6.37372 12.2635 6.4737 12.2243 6.5775 12.2243C6.6813 12.2243 6.78128 12.2635 6.8575 12.3339C7.62047 13.0541 8.63404 13.4487 9.68312 13.4339C10.7669 13.4339 11.49 12.9752 11.49 12.2489C11.49 11.5227 10.7575 11.3339 9.37437 10.8164C7.90625 10.2921 6.51625 9.55018 6.51625 7.81518C6.51625 5.80018 8.18937 4.81706 10.175 4.72581L10.3831 3.70018C10.4023 3.60871 10.4529 3.52681 10.526 3.46861C10.5991 3.41042 10.6903 3.37958 10.7837 3.38143H12.265L12.3494 3.39143C12.4009 3.40221 12.4499 3.42306 12.4933 3.45278C12.5368 3.48251 12.574 3.52053 12.6027 3.56467C12.6315 3.6088 12.6512 3.65818 12.6608 3.70996C12.6704 3.76175 12.6697 3.81492 12.6587 3.86643L12.4344 5.00893C13.1899 5.25849 13.8905 5.6508 14.4981 6.16456L14.5175 6.18393C14.6737 6.35018 14.6737 6.60081 14.5175 6.75018L14.5181 6.75081Z" fill="#8F3CF2"/>
</g>
<defs>
<clipPath id="clip0">
<rect width="20" height="20" fill="white"/>
</clipPath>
</defs>
</svg>
