<svg width="20" height="20" viewBox="0 0 20 20" fill="none" xmlns="http://www.w3.org/2000/svg">
<path d="M15.5555 2.22223H6.66665C6.37197 2.22223 6.08935 2.33929 5.88098 2.54767C5.67261 2.75604 5.55554 3.03866 5.55554 3.33334V7.22223H10.2778L8.39999 5.39445C8.30897 5.28817 8.26141 5.15146 8.26681 5.01164C8.27221 4.87182 8.33018 4.73919 8.42912 4.64025C8.52806 4.54131 8.66069 4.48335 8.80051 4.47794C8.94033 4.47254 9.07704 4.5201 9.18332 4.61112L12.4 7.82779L9.18332 11.0445C9.07704 11.1355 8.94033 11.183 8.80051 11.1776C8.66069 11.1722 8.52806 11.1143 8.42912 11.0153C8.33018 10.9164 8.27221 10.7837 8.26681 10.6439C8.26141 10.5041 8.30897 10.3674 8.39999 10.2611L10.2778 8.33334H5.55554V16.6667C5.55554 16.9614 5.67261 17.244 5.88098 17.4523C6.08935 17.6607 6.37197 17.7778 6.66665 17.7778H15.5555C15.8502 17.7778 16.1328 17.6607 16.3412 17.4523C16.5496 17.244 16.6667 16.9614 16.6667 16.6667V3.33334C16.6667 3.03866 16.5496 2.75604 16.3412 2.54767C16.1328 2.33929 15.8502 2.22223 15.5555 2.22223Z" fill="white"/>
<path d="M5.55558 7.22223H2.22224C2.0749 7.22223 1.93359 7.28076 1.82941 7.38495C1.72522 7.48913 1.66669 7.63044 1.66669 7.77778C1.66669 7.92513 1.72522 8.06643 1.82941 8.17062C1.93359 8.27481 2.0749 8.33334 2.22224 8.33334H5.55558V7.22223Z" fill="white"/>
</svg>
